<?xml version="1.0" standalone="no"?>
<!DOCTYPE svg PUBLIC "-//W3C//DTD SVG 20010904//EN"
 "http://www.w3.org/TR/2001/REC-SVG-20010904/DTD/svg10.dtd">
<svg version="1.0" xmlns="http://www.w3.org/2000/svg"
 width="1250.000000pt" height="1250.000000pt" viewBox="0 0 1250.000000 1250.000000"
 preserveAspectRatio="xMidYMid meet">
<metadata>
Created by potrace 1.14, written by Peter Selinger 2001-2017
</metadata>
<g transform="translate(0.000000,1250.000000) scale(0.100000,-0.100000)"
fill="#000000" stroke="none">
<path d="M6270 10273 c-47 -14 -110 -48 -110 -60 0 -7 -4 -13 -9 -13 -8 0
-131 -182 -131 -194 0 -3 -16 -30 -35 -61 -20 -30 -32 -55 -28 -55 4 0 3 -4
-3 -8 -10 -6 -94 -137 -94 -146 0 -2 -8 -21 -17 -42 -9 -22 -18 -48 -20 -59
-2 -10 -7 -22 -11 -25 -7 -5 -10 -14 -17 -51 -2 -8 -15 -44 -30 -80 -32 -76
-46 -112 -46 -119 0 -3 -8 -13 -16 -22 -9 -10 -13 -18 -10 -18 3 0 -16 -47
-43 -105 -27 -58 -46 -105 -42 -105 4 0 2 -4 -3 -8 -11 -8 -102 -192 -110
-222 -1 -3 -13 -31 -28 -64 -15 -32 -27 -62 -27 -65 0 -4 -8 -25 -19 -47 -24
-51 -62 -162 -66 -194 -5 -39 -35 -121 -62 -171 -13 -25 -25 -53 -27 -61 -1
-9 -8 -23 -15 -32 -7 -8 -10 -20 -6 -26 3 -5 0 -10 -8 -10 -17 0 -30 -27 -20
-42 3 -7 1 -8 -5 -4 -11 7 -16 -7 -15 -41 1 -7 -3 -11 -7 -8 -7 4 -14 -9 -35
-65 -9 -25 -21 -47 -29 -57 -30 -34 -36 -43 -36 -53 0 -5 -3 -10 -8 -10 -4 0
-16 -17 -27 -37 -11 -21 -22 -40 -25 -43 -10 -10 -90 -176 -90 -188 0 -7 -5
-12 -10 -12 -6 0 -9 -3 -9 -7 1 -5 0 -10 -1 -13 -1 -3 -3 -12 -5 -20 -7 -37
-48 -156 -56 -165 -5 -5 -53 -10 -107 -11 -88 -1 -400 -9 -767 -19 -668 -19
-1068 -47 -1155 -82 -8 -4 -18 -7 -22 -8 -5 -2 -9 -3 -10 -5 -2 -1 -12 -3 -22
-5 -18 -3 -222 -69 -256 -82 -8 -4 -17 -7 -20 -8 -24 -8 -50 -18 -75 -29 -16
-7 -41 -18 -55 -23 -14 -6 -51 -22 -82 -37 -31 -14 -62 -26 -67 -26 -6 0 -11
-3 -11 -8 0 -4 -14 -13 -31 -21 -17 -8 -44 -27 -60 -44 -16 -16 -29 -26 -29
-22 0 5 -6 1 -12 -8 -7 -9 -42 -30 -78 -48 -56 -27 -152 -91 -186 -124 -6 -5
-23 -19 -39 -30 -15 -11 -41 -32 -56 -47 -16 -15 -29 -25 -29 -22 0 3 -44 -30
-97 -73 -116 -91 -204 -181 -241 -243 -14 -25 -31 -48 -37 -52 -6 -5 -6 -8 0
-8 6 0 6 -3 0 -8 -6 -4 -21 -22 -34 -40 -13 -19 -35 -46 -49 -60 -13 -15 -36
-45 -51 -67 -14 -22 -31 -46 -38 -53 -6 -6 -15 -21 -18 -32 -3 -11 -11 -20
-16 -20 -5 0 -9 -7 -9 -15 0 -8 -5 -15 -11 -15 -5 0 -8 -4 -5 -9 3 -5 -1 -14
-9 -21 -8 -7 -15 -18 -15 -25 0 -8 -3 -15 -7 -17 -9 -3 -83 -122 -83 -132 0
-3 -16 -30 -35 -60 -19 -30 -35 -58 -35 -62 0 -4 -10 -23 -22 -43 -13 -20 -23
-38 -23 -41 -1 -3 -10 -23 -22 -45 -18 -34 -55 -143 -54 -160 0 -2 -6 -17 -14
-32 -8 -14 -12 -30 -9 -35 3 -4 0 -8 -7 -8 -6 0 -9 -8 -6 -20 3 -11 1 -23 -5
-26 -5 -3 -8 -15 -5 -25 3 -11 1 -17 -3 -14 -5 3 -9 -18 -10 -47 -1 -29 -3
-99 -6 -155 -3 -57 -1 -103 3 -103 5 0 7 -16 5 -36 -3 -20 -1 -34 4 -31 5 3 7
-21 6 -54 -2 -33 0 -59 6 -59 5 0 7 -12 4 -26 -3 -17 -1 -25 5 -21 6 4 11 -3
12 -16 3 -57 14 -127 19 -123 4 2 8 -12 8 -31 2 -45 35 -144 51 -150 6 -3 9
-11 6 -19 -3 -8 0 -14 6 -14 6 0 8 -7 5 -15 -3 -8 -2 -20 2 -27 5 -7 10 -22
11 -33 2 -11 6 -27 10 -35 8 -18 10 -27 12 -41 0 -5 6 -7 13 -3 7 4 8 3 4 -5
-9 -14 32 -73 45 -65 5 3 8 0 7 -8 -2 -7 2 -12 8 -11 7 1 11 -5 10 -15 0 -10
5 -16 14 -14 8 2 12 0 8 -4 -10 -9 51 -86 63 -79 5 4 6 0 3 -8 -3 -8 2 -17 11
-21 9 -3 14 -10 10 -16 -3 -5 8 -18 25 -29 17 -10 38 -29 47 -41 8 -12 21 -19
29 -16 7 3 16 0 20 -6 5 -7 2 -8 -7 -4 -13 7 -7 2 51 -43 14 -11 36 -29 50
-41 14 -12 45 -36 70 -53 25 -17 47 -33 50 -37 3 -3 37 -22 75 -40 39 -19 71
-38 73 -42 2 -5 11 -8 21 -8 9 0 21 -4 26 -9 29 -27 278 -100 415 -122 36 -5
76 -12 90 -14 180 -30 571 -20 748 20 12 3 30 7 40 9 92 21 263 82 273 98 3 6
10 9 15 9 20 -2 64 19 64 30 0 7 3 9 6 6 4 -4 19 1 33 11 14 10 38 24 53 32
16 7 83 56 150 107 68 52 141 108 163 125 22 16 39 34 38 39 -2 5 4 9 12 9 8
0 15 4 15 8 0 5 11 15 25 22 13 7 22 17 19 22 -3 4 -1 8 4 8 18 0 153 143 148
156 -3 8 -2 13 2 11 4 -1 9 3 12 8 2 6 15 21 28 34 14 14 22 31 19 42 -3 11
-1 17 3 14 7 -4 22 23 25 45 0 3 4 11 8 18 5 6 5 12 2 12 -3 0 3 10 14 22 11
11 17 26 14 32 -3 6 -3 8 2 4 8 -8 45 33 45 49 0 5 10 29 21 53 12 24 23 51
24 59 2 9 4 17 5 19 2 1 4 7 5 12 1 6 4 13 5 18 1 4 2 10 1 14 0 5 4 8 9 8 6
0 10 5 10 12 0 17 71 162 82 166 4 2 6 8 2 13 -3 5 0 9 6 9 6 0 9 4 5 9 -3 5
-1 12 3 15 5 3 26 40 48 83 21 43 43 81 47 84 5 3 8 8 7 10 -1 2 3 17 9 32 6
16 11 32 11 37 0 5 4 10 8 12 8 3 62 120 66 142 4 23 60 131 96 185 44 66 110
193 110 210 0 25 132 342 152 366 4 5 8 17 8 27 0 10 5 18 10 18 6 0 10 6 10
14 0 8 16 45 35 82 19 37 35 73 35 80 0 8 5 14 12 14 6 0 9 3 6 6 -3 3 9 35
27 72 17 37 38 84 44 105 7 20 21 42 31 47 25 14 63 77 54 91 -5 8 -3 9 6 4
10 -6 12 -4 7 8 -3 10 -2 17 3 17 6 0 10 11 10 25 0 14 4 25 9 25 5 0 13 9 16
20 4 11 19 32 33 47 15 14 20 22 12 18 -8 -4 -5 2 8 14 12 12 19 27 16 33 -4
6 -3 8 4 4 13 -8 26 29 16 45 -4 7 -3 9 3 6 5 -3 17 11 27 31 10 20 23 45 28
56 7 14 6 16 -4 10 -7 -4 0 5 15 19 15 15 25 32 22 37 -4 6 -2 9 3 8 6 -2 10
1 10 5 1 5 10 17 22 27 12 10 21 22 21 27 0 4 14 37 31 73 17 36 31 70 33 75
1 6 7 21 13 35 10 22 30 71 100 245 9 22 21 43 27 47 5 4 6 8 2 8 -4 0 -2 10
5 23 7 12 13 24 13 27 0 3 6 15 13 26 6 12 8 24 5 28 -3 3 -1 6 6 6 8 0 11 6
7 17 -4 10 -4 14 0 10 11 -10 57 71 50 89 -3 7 -1 14 5 14 6 0 8 7 5 16 -3 8
-2 12 4 9 6 -3 11 -1 11 4 1 6 3 14 4 19 2 4 6 17 10 30 4 12 12 22 17 22 6 0
8 6 5 14 -3 8 1 17 9 20 8 3 13 9 13 13 -2 9 7 35 23 70 6 12 8 29 5 37 -4 9
-3 16 2 16 7 0 22 40 23 60 0 3 5 14 11 25 6 11 10 23 9 28 -1 4 2 7 6 7 4 0
13 21 20 48 8 26 18 55 23 65 33 61 51 98 53 109 1 7 7 23 14 34 6 12 9 24 7
26 -3 3 1 21 9 40 9 20 12 38 9 42 -4 3 -1 6 6 6 7 0 9 5 6 10 -3 6 -2 10 3
10 5 0 14 19 21 42 7 23 26 68 41 100 16 33 34 75 40 94 6 19 19 41 27 50 9 8
17 26 18 38 2 13 8 33 14 45 7 12 9 27 5 33 -4 6 -3 8 3 5 5 -4 16 6 24 21 8
15 20 31 27 35 7 5 10 12 7 18 -4 5 -1 9 5 9 7 0 10 7 6 15 -3 8 -1 15 4 15 6
0 10 11 10 24 0 14 4 27 9 30 4 3 11 26 14 51 7 47 44 115 64 115 7 0 16 8 22
18 5 9 12 16 15 14 4 -2 20 0 37 3 30 7 109 -19 109 -35 0 -4 10 -18 23 -31
23 -26 27 -33 35 -61 2 -10 7 -18 11 -18 4 0 13 -21 20 -47 8 -27 16 -52 20
-58 3 -5 4 -21 3 -35 -4 -33 21 -102 56 -153 37 -56 50 -90 62 -170 9 -58 78
-231 99 -247 3 -3 7 -11 9 -19 2 -8 12 -27 22 -41 11 -15 16 -30 12 -34 -3 -4
-2 -10 3 -14 23 -16 117 -254 140 -352 21 -89 113 -313 150 -365 73 -101 106
-276 60 -321 -7 -8 -18 -14 -24 -14 -6 0 -11 -5 -11 -10 0 -6 -3 -9 -7 -9 -5
1 -10 0 -13 -1 -7 -2 -28 -7 -70 -14 -83 -14 -212 -18 -665 -21 -264 -1 -496
-6 -515 -10 -55 -11 -101 -39 -158 -95 -70 -71 -73 -85 -26 -175 20 -41 41
-75 46 -75 4 0 8 -6 8 -13 0 -7 9 -23 20 -35 11 -12 20 -25 20 -29 0 -5 7 -16
15 -26 8 -9 15 -21 15 -26 0 -4 8 -15 18 -24 15 -14 82 -16 592 -16 316 0 631
-3 700 -6 228 -10 330 -49 397 -151 16 -24 98 -177 99 -184 0 -3 19 -43 41
-90 23 -47 51 -107 63 -135 12 -27 38 -83 56 -123 19 -40 34 -77 34 -82 0 -6
5 -10 12 -10 6 0 9 -3 6 -6 -3 -3 18 -58 46 -122 62 -139 68 -153 72 -170 1
-7 8 -20 15 -29 7 -8 14 -21 15 -29 1 -7 14 -39 29 -71 15 -32 28 -66 30 -75
2 -10 10 -32 18 -50 8 -18 22 -55 32 -81 9 -26 32 -70 50 -97 55 -82 135 -263
135 -305 0 -8 5 -15 10 -15 6 0 10 -8 10 -18 0 -10 3 -22 7 -26 4 -3 8 -14 9
-22 4 -23 140 -310 154 -324 3 -3 12 -18 20 -35 8 -16 20 -35 25 -42 6 -7 16
-19 23 -28 7 -8 10 -15 7 -15 -8 0 57 -94 68 -98 4 -2 7 -10 7 -18 0 -8 5 -14
10 -14 6 0 10 -6 10 -14 0 -8 3 -16 8 -18 4 -1 29 -32 57 -68 27 -36 58 -76
70 -89 40 -46 264 -271 270 -271 3 0 18 -11 33 -25 39 -36 170 -128 222 -156
25 -13 48 -28 51 -33 4 -5 12 -5 19 -1 8 5 11 4 7 -2 -6 -10 232 -101 282
-108 17 -2 34 -6 38 -8 5 -3 29 -8 53 -12 25 -3 56 -8 70 -10 14 -2 59 -6 100
-10 41 -3 95 -8 120 -10 25 -2 106 -7 180 -11 74 -3 153 -8 175 -10 59 -5 504
-18 620 -18 155 0 353 13 425 28 156 33 180 39 180 47 0 5 6 9 14 9 45 0 90
202 72 323 -6 42 -52 110 -73 107 -4 0 -33 2 -63 6 -30 3 -67 8 -82 9 -40 5
-340 14 -658 21 -151 3 -302 7 -335 9 -87 4 -244 15 -285 20 -19 2 -60 7 -90
10 -228 24 -380 57 -482 102 -32 14 -58 30 -58 34 0 5 -6 9 -13 9 -7 0 -23 9
-35 20 -12 11 -24 20 -26 20 -3 0 -19 14 -34 30 -16 17 -33 30 -37 30 -5 0
-30 23 -57 51 -26 28 -48 48 -48 44 0 -4 -12 7 -26 24 -14 17 -44 51 -67 75
-61 63 -97 107 -97 117 0 4 -6 12 -14 16 -17 11 -86 107 -86 122 0 6 -4 11
-10 11 -5 0 -10 4 -10 9 0 39 -142 286 -172 299 -5 2 -8 10 -8 18 0 8 -4 14
-9 14 -5 0 -13 10 -17 23 -3 12 -11 28 -17 36 -6 7 -12 18 -13 25 -5 33 -28
105 -49 152 -13 29 -21 55 -17 58 3 3 0 6 -6 6 -7 0 -12 6 -12 13 0 7 -71 157
-159 332 -87 176 -164 337 -172 358 -7 20 -17 37 -21 37 -4 0 -7 3 -6 8 1 4
-8 30 -21 57 -99 217 -142 419 -111 523 11 34 18 41 59 55 45 15 106 31 126
32 6 0 16 4 23 8 6 5 12 6 12 2 0 -3 9 -1 21 5 28 15 43 18 161 25 57 4 128 8
158 10 79 5 434 15 735 20 143 2 274 7 290 10 91 16 120 30 172 82 29 30 51
58 48 63 -3 5 -1 11 4 15 6 3 8 28 6 55 -5 52 -31 102 -81 156 -16 17 -43 48
-61 69 l-32 37 -868 3 c-477 2 -877 5 -888 8 -11 2 -46 8 -77 11 -32 4 -68 16
-81 26 -13 11 -27 16 -31 13 -3 -3 -6 1 -6 10 0 10 -3 17 -7 17 -5 0 -13 10
-19 23 -6 12 -22 42 -34 67 -12 25 -28 52 -35 60 -8 8 -14 19 -13 23 0 8 -64
139 -72 147 -3 3 -6 10 -7 16 -1 7 -23 54 -48 105 -25 52 -46 95 -45 97 0 1
-9 21 -19 45 -11 23 -45 101 -76 172 -66 151 -205 438 -214 445 -15 11 -70
140 -97 225 -15 50 -29 92 -30 95 -1 3 -5 15 -9 28 -4 12 -11 22 -16 22 -5 0
-8 4 -6 8 3 11 -86 162 -96 162 -5 0 -5 5 -2 10 3 6 -1 10 -10 10 -9 0 -14 4
-11 9 9 14 -104 112 -159 137 -62 29 -110 29 -200 0 -55 -18 -77 -21 -105 -13
-44 12 -108 81 -116 126 -7 34 10 102 43 179 9 20 17 39 18 42 1 3 9 32 19 65
77 250 71 406 -18 476 -49 38 -126 61 -216 64 -47 1 -92 1 -100 -2z m-2350
-3477 c91 -4 188 -9 215 -12 28 -3 57 -6 65 -6 8 1 58 -4 110 -10 101 -10 155
-29 164 -56 3 -9 12 -34 19 -54 8 -21 13 -39 12 -40 -1 -2 -5 -35 -8 -73 -6
-71 -28 -147 -48 -172 -6 -7 -8 -13 -5 -13 4 0 -7 -20 -24 -45 -17 -25 -27
-45 -23 -45 4 0 3 -4 -3 -8 -17 -10 -104 -179 -97 -186 4 -3 1 -6 -5 -6 -13 0
-44 -59 -36 -71 3 -5 1 -9 -4 -9 -5 0 -17 -12 -27 -26 -12 -18 -13 -24 -4 -19
8 3 6 0 -4 -8 -17 -14 -43 -82 -39 -100 2 -5 -2 -6 -7 -3 -11 7 -23 -22 -14
-36 4 -7 1 -8 -7 -3 -10 6 -12 3 -8 -13 4 -12 2 -20 -3 -16 -8 4 -14 -33 -10
-58 0 -5 -5 -7 -12 -5 -6 1 -11 -6 -11 -15 1 -10 -3 -16 -10 -15 -6 1 -11 -5
-11 -13 0 -8 -4 -18 -10 -22 -5 -4 -10 -11 -10 -15 0 -4 -9 -20 -19 -35 -12
-18 -17 -40 -14 -62 2 -19 1 -33 -3 -30 -5 3 -23 -44 -20 -53 1 -2 -8 -12 -19
-23 -11 -11 -21 -27 -21 -35 -2 -24 -4 -29 -12 -42 -5 -7 -5 -18 -1 -25 4 -7
3 -8 -4 -4 -7 4 -13 4 -13 -1 -1 -4 -3 -17 -5 -28 -1 -11 -6 -33 -10 -50 -4
-16 -7 -38 -8 -47 0 -9 -3 -15 -7 -12 -4 2 -12 -10 -18 -26 -5 -17 -7 -30 -4
-30 4 0 -4 -11 -17 -25 -13 -14 -19 -25 -14 -25 5 0 1 -5 -8 -11 -14 -8 -83
-139 -88 -167 -1 -4 -8 -11 -16 -15 -8 -4 -14 -13 -14 -19 0 -12 -86 -127
-105 -140 -5 -4 -7 -8 -3 -8 3 0 -8 -15 -25 -34 -18 -19 -59 -64 -92 -101
-141 -159 -308 -315 -337 -315 -10 0 -17 -4 -14 -9 4 -5 -3 -7 -14 -4 -12 3
-20 0 -20 -6 0 -7 -4 -10 -9 -6 -5 3 -16 -2 -24 -10 -9 -8 -20 -15 -26 -15 -6
0 -11 -5 -11 -11 0 -5 -4 -8 -9 -5 -5 3 -12 -1 -15 -10 -4 -9 -9 -14 -13 -11
-3 4 -12 2 -19 -3 -6 -6 -16 -10 -20 -8 -5 1 -43 -15 -84 -35 -71 -35 -177
-67 -265 -81 -22 -4 -53 -9 -70 -12 -78 -14 -246 -19 -295 -10 -14 3 -43 7
-65 10 -22 3 -51 8 -65 11 -14 3 -34 7 -45 9 -77 12 -359 130 -395 166 -3 3
-27 20 -55 39 -57 39 -162 142 -189 184 -42 68 -68 305 -67 630 0 87 3 184 6
215 3 32 7 80 10 107 6 66 14 107 25 120 4 5 9 26 11 45 2 19 7 41 12 48 5 6
6 12 3 12 -4 0 0 7 8 16 9 8 13 21 9 27 -3 7 -3 9 1 5 5 -4 22 14 40 40 18 26
46 62 63 81 18 19 29 39 26 44 -3 6 -2 7 4 4 5 -4 16 5 23 18 7 14 17 25 22
25 4 0 14 16 22 35 12 29 246 273 246 257 0 -3 13 8 28 24 16 16 48 45 71 64
24 19 53 43 65 53 11 10 36 31 55 45 18 15 41 34 51 43 11 8 31 24 45 35 15
10 33 25 40 32 8 6 16 12 20 12 5 0 18 9 48 36 23 20 183 122 228 145 24 13
47 28 51 33 4 6 8 7 8 2 0 -5 6 -3 13 3 18 14 228 83 235 77 2 -3 12 -1 22 4
10 5 60 12 111 16 52 4 95 7 96 8 6 5 679 -2 823 -8z"/>
</g>
</svg>
